<?xml version="1.0" encoding="UTF-8" standalone="no"?>
<!-- Created with Inkscape (http://www.inkscape.org/) -->

<svg
   xmlns:dc="http://purl.org/dc/elements/1.1/"
   xmlns:cc="http://creativecommons.org/ns#"
   xmlns:rdf="http://www.w3.org/1999/02/22-rdf-syntax-ns#"
   xmlns:svg="http://www.w3.org/2000/svg"
   xmlns="http://www.w3.org/2000/svg"
   xmlns:sodipodi="http://sodipodi.sourceforge.net/DTD/sodipodi-0.dtd"
   xmlns:inkscape="http://www.inkscape.org/namespaces/inkscape"
   width="512"
   height="512"
   viewBox="0 0 135.46667 135.46667"
   version="1.1"
   id="svg8"
   inkscape:version="0.92.5 (2060ec1f9f, 2020-04-08)"
   sodipodi:docname="logo.svg">
  <defs
     id="defs2" />
  <sodipodi:namedview
     id="base"
     pagecolor="#ffffff"
     bordercolor="#666666"
     borderopacity="1.0"
     inkscape:pageopacity="0.0"
     inkscape:pageshadow="2"
     inkscape:zoom="0.35"
     inkscape:cx="-763.69466"
     inkscape:cy="350.19196"
     inkscape:document-units="mm"
     inkscape:current-layer="layer1"
     showgrid="false"
     units="px"
     inkscape:window-width="1366"
     inkscape:window-height="710"
     inkscape:window-x="0"
     inkscape:window-y="0"
     inkscape:window-maximized="1" />
  <metadata
     id="metadata5">
    <rdf:RDF>
      <cc:Work
         rdf:about="">
        <dc:format>image/svg+xml</dc:format>
        <dc:type
           rdf:resource="http://purl.org/dc/dcmitype/StillImage" />
        <dc:title></dc:title>
      </cc:Work>
    </rdf:RDF>
  </metadata>
  <g
     inkscape:label="Layer 1"
     inkscape:groupmode="layer"
     id="layer1"
     transform="translate(0,-161.53332)">
    <g
       id="g74"
       transform="matrix(1.4065934,0,0,1.4065935,-67.30801,-47.070359)"
       inkscape:export-xdpi="75"
       inkscape:export-ydpi="75">
      <path
         style="fill:#f29f3b;stroke-width:0.35277778"
         d="m 72.841985,232.22195 c -1.645372,-0.46466 -4.009638,-2.4803 -4.856586,-4.14045 -0.882822,-1.73048 -6.495315,-23.71835 -6.132647,-24.02567 0.477687,-0.40478 10.576344,-2.24987 11.136867,-2.03478 0.338819,0.13002 0.924914,1.91423 1.668719,5.07996 1.225816,5.21724 1.648265,6.37557 2.144295,5.87954 0.170765,-0.17077 0.79004,-2.45 1.376168,-5.06496 0.586127,-2.61496 1.149104,-5.11166 1.251058,-5.54823 0.151757,-0.64981 0.424042,-0.79257 1.501567,-0.78728 1.891023,0.009 8.642826,1.00544 8.959221,1.32184 0.341574,0.34157 -4.820147,23.40234 -5.571839,24.89303 -0.810027,1.60638 -2.210935,3.01378 -3.835075,3.85285 -1.635805,0.8451 -5.621815,1.14458 -7.641748,0.57415 z m 39.423755,-0.13773 c -2.16875,-0.82791 -3.60728,-2.12873 -4.57555,-4.13753 -1.04146,-2.16064 -5.6929,-22.45135 -5.2486,-22.89565 0.15902,-0.15903 1.63356,-0.13458 3.27675,0.0543 1.64319,0.1889 3.89484,0.34466 5.00368,0.34613 2.38339,0.003 2.40279,0.0275 3.27542,4.10716 0.65388,3.05696 1.0332,3.97593 1.46351,3.54562 0.14683,-0.14684 0.67519,-1.88657 1.17412,-3.86608 l 0.90715,-3.59911 4.40131,-0.40697 c 2.42072,-0.22383 5.23475,-0.52401 6.2534,-0.66707 1.33994,-0.18818 1.85208,-0.14433 1.85208,0.15855 0,0.23026 -1.27212,5.3704 -2.82694,11.42254 -3.14172,12.22917 -3.67195,13.47737 -6.45631,15.19881 -1.4072,0.87001 -2.12145,1.05702 -4.40039,1.15217 -1.81024,0.0756 -3.18197,-0.0626 -4.09963,-0.41289 z m -8.49867,-36.04093 c -1.74625,-0.28474 -3.35723,-0.70471 -3.57996,-0.93327 -0.39779,-0.40822 -1.535322,-4.92047 -1.535322,-6.09018 0,-0.52621 0.280395,-0.56657 2.381252,-0.34281 1.30969,0.13948 3.69561,0.37775 5.30205,0.52947 1.60644,0.15171 3.01005,0.3651 3.11913,0.47418 0.21046,0.21046 1.52039,5.76588 1.53573,6.51307 0.0121,0.58847 -3.08711,0.52391 -7.22288,-0.15046 z m 16.40416,-0.67384 c 0,-1.1703 1.01423,-5.13136 1.4485,-5.65708 0.17989,-0.21778 1.47539,-0.50678 2.87887,-0.64222 1.40349,-0.13544 4.12904,-0.5496 6.05677,-0.92035 1.92774,-0.37076 3.58346,-0.59562 3.67939,-0.49969 0.20965,0.20964 -0.96342,5.37484 -1.41957,6.25059 -0.24536,0.47107 -0.7692,0.61736 -2.21059,0.61736 -1.56229,0 -5.912,0.71808 -9.63962,1.59137 -0.66877,0.15668 -0.79375,0.0402 -0.79375,-0.73998 z m -61.18869,-1.25494 c -0.432099,-1.255 -1.252974,-4.89523 -1.252974,-5.5564 0,-0.6864 0.194283,-0.74328 2.557639,-0.74876 1.406701,-0.003 3.986389,-0.30305 5.732639,-0.66619 1.74625,-0.36315 3.304928,-0.54012 3.46373,-0.39326 0.433528,0.40091 1.707187,5.62884 1.466293,6.01861 -0.11504,0.18614 -0.874481,0.33937 -1.687649,0.34052 -1.464395,0.002 -7.488137,0.82458 -9.217432,1.2586 -0.601491,0.15097 -0.951864,0.0675 -1.062246,-0.25312 z m 26.620665,-0.79821 c -2.822176,-0.29423 -3.724362,-0.51318 -3.802785,-0.92292 -0.05655,-0.29545 0.18502,-1.80357 0.536818,-3.35139 l 0.639633,-2.81421 1.222875,-0.0927 c 0.672581,-0.051 2.96709,0.18788 5.098909,0.53077 4.50567,0.72473 4.410741,0.60337 3.538534,4.52379 l -0.583527,2.62283 -1.475242,-0.0552 c -0.811382,-0.0304 -3.14023,-0.22881 -5.175215,-0.44097 z m 11.108306,-14.35321 c -4.462639,-0.74852 -8.867952,-1.45396 -9.789584,-1.56766 -1.427522,-0.1761 -1.675073,-0.32107 -1.67151,-0.97885 0.0079,-1.46067 2.069331,-9.71147 2.763738,-11.06183 1.55501,-3.02389 4.099345,-4.4328 7.986089,-4.42226 3.896836,0.0106 6.245806,1.2986 7.730066,4.23869 0.64824,1.28406 3.75513,13.70967 3.74339,14.97118 -0.004,0.47791 -2.53587,0.20052 -10.762189,-1.17927 z m -41.630798,-0.0555 c -0.810176,-2.27175 -2.992176,-11.7249 -2.992517,-12.96458 -6e-4,-2.1225 0.961097,-3.60126 2.976492,-4.57689 1.348799,-0.65294 2.076935,-0.76782 4.131149,-0.65174 2.322261,0.13122 2.571834,0.22611 3.629231,1.37993 0.997603,1.08857 1.341659,2.06579 2.833459,8.04779 1.845725,7.40122 1.844987,7.41718 -0.344239,7.44542 -0.582083,0.008 -3.042708,0.40621 -5.468055,0.886 -2.425348,0.47979 -4.454393,0.87295 -4.508989,0.87369 -0.0546,7.5e-4 -0.170035,-0.19708 -0.256531,-0.43962 z m 68.971077,0.17972 c 0,-0.9196 3.62964,-15.14022 4.09313,-16.0365 0.92096,-1.78094 2.43775,-2.45192 5.25548,-2.32484 3.00855,0.13568 4.9611,1.05266 5.8767,2.7599 0.91794,1.7116 0.83119,2.60587 -0.88857,9.15992 l -1.52737,5.82083 -5.08177,0.22003 c -2.79497,0.12101 -5.67708,0.34022 -6.40468,0.48713 -0.82641,0.16685 -1.32292,0.1344 -1.32292,-0.0865 z"
         id="path80"
         inkscape:connector-curvature="0" />
      <path
         style="fill:#e43f0d;stroke-width:0.35277778"
         d="m 72.624475,232.47348 c -2.133985,-0.69624 -3.653409,-1.96793 -4.729209,-3.95814 -0.573426,-1.06083 -2.032707,-6.03683 -3.81448,-13.007 -1.587167,-6.20889 -2.964288,-11.36827 -3.060268,-11.46528 -0.09598,-0.097 -1.867897,-0.27469 -3.937592,-0.39483 -6.09907,-0.35403 -9.994145,-2.41245 -8.940571,-4.72479 0.521236,-1.14399 3.804111,-2.73507 7.385157,-3.57931 1.448484,-0.34148 2.712312,-0.82598 2.808508,-1.07666 0.20576,-0.5362 -0.90998,-5.38478 -1.375564,-5.97768 -0.175969,-0.22409 -1.363359,-0.58913 -2.638643,-0.81121 -4.207241,-0.73266 -6.845116,-2.51185 -6.294809,-4.24572 0.299781,-0.94452 2.315365,-2.23485 4.675478,-2.99312 1.365566,-0.43874 1.852084,-0.76909 1.852084,-1.25757 0,-0.36439 -0.63421,-3.09007 -1.409356,-6.05707 -0.775145,-2.967 -1.410145,-6.12513 -1.411111,-7.01807 -0.0036,-3.3615 2.819002,-5.60951 7.040356,-5.6071 2.735515,0.002 4.315981,0.7912 5.170588,2.58333 0.309056,0.64809 1.299193,4.09253 2.200305,7.65429 l 1.638385,6.47594 8.237557,-0.0321 c 4.530656,-0.0176 8.361371,-0.16693 8.512695,-0.33174 0.151328,-0.16482 0.542812,-1.56967 0.869961,-3.12189 1.773293,-8.41368 2.884568,-10.60625 6.1283,-12.09128 3.550715,-1.62557 8.313491,-1.06733 10.767824,1.26208 1.70816,1.62122 2.43008,3.52972 4.09627,10.8292 l 1.61051,7.05556 2.46622,0.26774 c 3.50679,0.38071 12.07736,-0.53077 12.85873,-1.36753 0.1599,-0.17123 1.11771,-3.74849 2.12847,-7.94948 1.01077,-4.20099 2.13778,-8.1315 2.50447,-8.73448 1.20114,-1.97511 2.59155,-2.56393 5.68126,-2.40592 2.22607,0.11384 2.97762,0.3126 4.17292,1.10361 1.5279,1.01112 2.46159,2.66118 2.45933,4.34625 -7e-4,0.53981 -0.63258,3.36272 -1.40413,6.27314 -1.70398,6.42772 -1.72684,6.79107 -0.44664,7.0993 1.78256,0.42918 4.17718,1.82824 4.55407,2.6607 0.24586,0.54306 0.25673,1.08152 0.032,1.58179 -0.41892,0.93229 -2.94943,2.32412 -5.5982,3.07911 -1.09027,0.31077 -2.13845,0.76507 -2.32929,1.00956 -0.50453,0.64641 -1.87035,6.403 -1.57935,6.65658 0.13559,0.11815 1.43715,0.40073 2.89235,0.62795 6.15291,0.96073 8.68876,3.84676 5.23201,5.95453 -1.31473,0.80166 -5.77288,2.25931 -8.82747,2.88625 -2.39414,0.49139 -1.81311,-0.91192 -5.36279,12.95238 -1.44882,5.65879 -2.87765,10.75945 -3.17517,11.33479 -1.59645,3.08719 -4.0503,4.67337 -7.62213,4.92698 -2.8582,0.20293 -4.82625,-0.31332 -6.77614,-1.77748 -2.41699,-1.81491 -3.15342,-3.79143 -5.74697,-15.42438 -1.27611,-5.72382 -2.52887,-10.56604 -2.7839,-10.76049 -0.54446,-0.41511 -10.388326,-2.11455 -10.66217,-1.84071 -0.102513,0.10252 -1.368107,5.45276 -2.812422,11.88944 -1.444318,6.43667 -2.879587,12.20656 -3.189488,12.82198 -0.808239,1.60505 -2.555675,3.35899 -4.188633,4.20424 -1.788543,0.92577 -5.743837,1.16447 -7.859258,0.47429 z m 7.859258,-0.82568 c 1.62414,-0.83907 3.025048,-2.24647 3.835075,-3.85285 0.751692,-1.49069 5.913413,-24.55146 5.571839,-24.89303 -0.316395,-0.3164 -7.068198,-1.31256 -8.959221,-1.32184 -1.077525,-0.005 -1.34981,0.13747 -1.501567,0.78728 -0.101954,0.43657 -0.664931,2.93327 -1.251058,5.54823 -0.586128,2.61496 -1.205403,4.89419 -1.376168,5.06496 -0.49603,0.49603 -0.918479,-0.6623 -2.144295,-5.87954 -0.743805,-3.16573 -1.3299,-4.94994 -1.668719,-5.07996 -0.560523,-0.21509 -10.65918,1.63 -11.136867,2.03478 -0.362668,0.30732 5.249825,22.29519 6.132647,24.02567 0.846948,1.66015 3.211214,3.67579 4.856586,4.14045 2.019933,0.57043 6.005943,0.27095 7.641748,-0.57415 z m 40.282027,-0.30286 c 2.78436,-1.72144 3.31459,-2.96964 6.45631,-15.19881 1.55482,-6.05214 2.82694,-11.19228 2.82694,-11.42254 0,-0.30288 -0.51214,-0.34673 -1.85208,-0.15855 -1.01865,0.14306 -3.83268,0.44324 -6.2534,0.66707 l -4.40131,0.40697 -0.90715,3.59911 c -0.49893,1.97951 -1.02729,3.71924 -1.17412,3.86608 -0.43031,0.43031 -0.80963,-0.48866 -1.46351,-3.54562 -0.87263,-4.07967 -0.89203,-4.10399 -3.27542,-4.10716 -1.10884,-0.001 -3.36049,-0.15723 -5.00368,-0.34613 -1.64319,-0.1889 -3.11773,-0.21335 -3.27675,-0.0543 -0.4443,0.4443 4.20714,20.73501 5.2486,22.89565 1.59213,3.30309 4.31699,4.73237 8.67518,4.55042 2.27894,-0.0951 2.99319,-0.28216 4.40039,-1.15217 z M 77.904538,207.71953 c 0.527349,-2.3131 0.966214,-4.6422 0.975255,-5.17578 0.01626,-0.95962 -0.0082,-0.97014 -2.255796,-0.97014 -1.24973,0 -2.375238,0.16666 -2.50113,0.37036 -0.342123,0.55357 2.008955,10.2525 2.449658,10.1056 0.205258,-0.0684 0.804665,-2.01693 1.332013,-4.33004 z m 38.004002,3.1145 c 0.85706,-3.23383 1.10079,-4.80232 0.79391,-5.1092 -0.57,-0.57 -2.68655,-0.1602 -2.82043,0.54609 -0.17145,0.90451 0.98023,5.88603 1.36079,5.88603 0.17331,0 0.47289,-0.59531 0.66573,-1.32292 z m 1.34717,-14.16116 c 1.01584,-0.14471 1.93581,-0.35195 2.04438,-0.46052 0.20101,-0.20101 1.5767,-5.70024 1.5767,-6.30275 0,-0.1907 -2.23766,-0.33043 -5.29167,-0.33043 h -5.29166 v 0.86005 c 0,1.25428 1.05142,5.58572 1.48175,6.10424 0.40493,0.4879 2.60021,0.53975 5.4805,0.12941 z m -6.26576,-0.47912 c -0.0153,-0.74719 -1.32527,-6.30261 -1.53573,-6.51307 -0.10908,-0.10908 -1.51269,-0.32247 -3.11913,-0.47418 -1.60644,-0.15172 -3.99236,-0.38999 -5.30205,-0.52947 -2.100857,-0.22376 -2.381252,-0.1834 -2.381252,0.34281 0,1.16971 1.137532,5.68196 1.535322,6.09018 0.95418,0.97918 10.82103,1.96902 10.80284,1.08373 z m 14.2472,-0.97298 c 1.91313,-0.38649 4.32848,-0.70271 5.36745,-0.70271 1.44139,0 1.96523,-0.14629 2.21059,-0.61736 0.45615,-0.87575 1.62922,-6.04095 1.41957,-6.25059 -0.0959,-0.0959 -1.75165,0.12893 -3.67939,0.49969 -1.92773,0.37075 -4.65328,0.78491 -6.05677,0.92035 -1.40348,0.13544 -2.69898,0.42444 -2.87887,0.64222 -0.43427,0.52572 -1.4485,4.48678 -1.4485,5.65708 0,0.78015 0.12498,0.89666 0.79375,0.73998 0.43657,-0.10227 2.35904,-0.50217 4.27217,-0.88866 z m -26.033042,-0.45945 c 0.169347,-0.44131 -1.005251,-6.10545 -1.334364,-6.43457 -0.439223,-0.43922 -3.464229,-0.74305 -3.752018,-0.37686 -0.516781,0.65759 -1.49522,5.61889 -1.171892,5.94221 0.232921,0.23293 3.658605,0.99613 5.805219,1.29335 0.151613,0.021 0.355487,-0.16987 0.453055,-0.42413 z m -34.841082,-1.13459 c 1.881389,-0.28359 4.086025,-0.51656 4.899192,-0.5177 0.813168,-10e-4 1.572609,-0.15438 1.687649,-0.34052 0.240894,-0.38977 -1.032765,-5.6177 -1.466293,-6.01861 -0.158802,-0.14686 -1.71748,0.0301 -3.46373,0.39326 -1.74625,0.36314 -4.325938,0.66294 -5.732639,0.66619 -2.959325,0.007 -2.939428,-0.0293 -2.013508,3.65918 0.807881,3.21825 0.766882,3.15114 1.771089,2.8991 0.493643,-0.1239 2.436852,-0.4573 4.31824,-0.7409 z m 28.474163,-2.43706 c 0.872207,-3.92042 0.967136,-3.79906 -3.538534,-4.52379 -2.131819,-0.34289 -4.426328,-0.58174 -5.098909,-0.53077 l -1.222875,0.0927 -0.639633,2.81421 c -0.351798,1.54782 -0.593367,3.05594 -0.536818,3.35139 0.07842,0.40974 0.980609,0.62869 3.802785,0.92292 2.034985,0.21216 4.363833,0.4106 5.175215,0.44097 l 1.475242,0.0552 z m -11.691988,1.28306 c 0.388972,-0.62937 1.412337,-6.4054 1.176634,-6.6411 -0.350235,-0.35024 -7.04975,-0.37161 -9.425863,-0.0301 -2.991896,0.43005 -2.968365,0.38612 -2.087715,3.89738 l 0.766275,3.05523 h 4.698364 c 2.5841,0 4.776637,-0.12665 4.872305,-0.28144 z M 107.4737,180.14236 c 0.0117,-1.26151 -3.09515,-13.68712 -3.74339,-14.97118 -1.48426,-2.94009 -3.83323,-4.22812 -7.730066,-4.23869 -3.886744,-0.0105 -6.431079,1.39837 -7.986089,4.42226 -0.694407,1.35036 -2.755829,9.60116 -2.763738,11.06183 -0.0036,0.65778 0.243988,0.80275 1.67151,0.97885 0.921632,0.1137 5.326945,0.81914 9.789584,1.56766 8.226319,1.37979 10.757739,1.65718 10.762189,1.17927 z m -47.627467,-1.66879 c 2.425347,-0.47979 4.885972,-0.87849 5.468055,-0.886 2.189226,-0.0282 2.189964,-0.0442 0.344239,-7.44542 -1.4918,-5.982 -1.835856,-6.95922 -2.833459,-8.04779 -1.057397,-1.15382 -1.30697,-1.24871 -3.629231,-1.37993 -4.372912,-0.2471 -7.108595,1.76537 -7.107641,5.22863 4.58e-4,1.63685 2.854046,13.40958 3.249048,13.4042 0.0546,-7.4e-4 2.083641,-0.3939 4.508989,-0.87369 z m 71.933157,0.21313 5.08177,-0.22003 1.52737,-5.82083 c 1.71976,-6.55405 1.80651,-7.44832 0.88857,-9.15992 -0.9156,-1.70724 -2.86815,-2.62422 -5.8767,-2.7599 -2.81773,-0.12708 -4.33452,0.5439 -5.25548,2.32484 -0.46349,0.89628 -4.09313,15.1169 -4.09313,16.0365 0,0.22087 0.49651,0.25332 1.32292,0.0865 0.7276,-0.14691 3.60971,-0.36612 6.40468,-0.48713 z"
         id="path78"
         inkscape:connector-curvature="0" />
      <path
         style="fill:#040200;stroke-width:0.35277778"
         d="m 47.851788,222.33993 v -22.27258 l 0.713586,0.90718 c 1.133935,1.44157 4.221913,2.40816 8.517552,2.66614 2.069695,0.1243 3.841612,0.30538 3.937592,0.40239 0.09598,0.097 1.473101,5.25639 3.060268,11.46528 3.094346,12.10487 3.874623,14.11951 6.090711,15.72598 2.618167,1.89793 7.429935,2.2462 10.337774,0.74823 1.608127,-0.82842 3.357798,-2.58839 4.163095,-4.1876 0.309901,-0.61542 1.74517,-6.38531 3.189488,-12.82198 1.444315,-6.43668 2.709909,-11.78692 2.812422,-11.88944 0.273844,-0.27384 10.117714,1.4256 10.662164,1.84071 0.25504,0.19445 1.50779,5.03667 2.78391,10.76049 2.59354,11.63295 3.32998,13.60947 5.74697,15.42438 1.94988,1.46416 3.91794,1.98041 6.77614,1.77748 3.57182,-0.25361 6.02568,-1.83979 7.62212,-4.92698 0.29752,-0.57534 1.72635,-5.676 3.17517,-11.33479 3.54968,-13.8643 2.96866,-12.46099 5.3628,-12.95238 3.05459,-0.62694 7.51273,-2.08459 8.82747,-2.88625 3.45674,-2.10777 0.92089,-4.9938 -5.23201,-5.95453 -1.45521,-0.22722 -2.75677,-0.5098 -2.89235,-0.62795 -0.29101,-0.25358 1.07482,-6.01017 1.57935,-6.65658 0.19084,-0.24449 1.23902,-0.69879 2.32929,-1.00956 2.64856,-0.75493 5.17222,-2.143 5.59502,-3.07739 0.22778,-0.50338 0.21936,-1.03764 -0.0249,-1.58155 -0.37289,-0.8303 -2.77447,-2.23326 -4.55794,-2.66266 -1.2802,-0.30823 -1.25734,-0.67158 0.44664,-7.0993 0.77155,-2.91042 1.40341,-5.73333 1.40413,-6.27314 0.002,-1.68507 -0.93143,-3.33513 -2.45933,-4.34625 -1.1953,-0.79101 -1.94685,-0.98977 -4.17292,-1.10361 -3.08971,-0.15801 -4.48012,0.43081 -5.68126,2.40592 -0.36669,0.60298 -1.4937,4.53349 -2.50447,8.73448 -1.01076,4.20099 -1.96857,7.77825 -2.12847,7.94948 -0.78137,0.83676 -9.35194,1.74824 -12.85873,1.36753 l -2.46622,-0.26774 -1.61051,-7.05556 c -1.66619,-7.29948 -2.38811,-9.20798 -4.09627,-10.8292 -2.454333,-2.32941 -7.217109,-2.88765 -10.767824,-1.26208 -3.243732,1.48503 -4.355007,3.6776 -6.1283,12.09128 -0.327149,1.55222 -0.718633,2.95707 -0.869961,3.12189 -0.151324,0.16481 -3.982039,0.3141 -8.512695,0.33174 l -8.237557,0.0321 -1.638385,-6.47594 c -0.901112,-3.56176 -1.891249,-7.0062 -2.200305,-7.65429 -0.854607,-1.79213 -2.435073,-2.58176 -5.170588,-2.58333 -4.221354,-0.002 -7.043991,2.2456 -7.040356,5.6071 9.53e-4,0.89294 0.635966,4.05107 1.411111,7.01807 0.775146,2.967 1.409356,5.69249 1.409356,6.05666 0,0.50115 -0.554968,0.84679 -2.282931,1.42182 -1.255611,0.41784 -2.763736,1.20885 -3.351389,1.7578 l -1.068458,0.99809 v -17.42765 -17.42765 h 48.154167 48.154165 v 48.15417 48.15416 H 96.005955 47.851788 Z M 75.04665,207.24415 c -0.633972,-2.7114 -1.049674,-5.09648 -0.923783,-5.30018 0.125892,-0.2037 1.2514,-0.37036 2.50113,-0.37036 2.247603,0 2.272058,0.0105 2.255796,0.97014 -0.0275,1.62306 -1.908562,9.37292 -2.307268,9.50582 -0.217392,0.0725 -0.854429,-1.93375 -1.525875,-4.80542 z m 39.29752,2.28996 c -0.75392,-3.38872 -0.65157,-3.87377 0.84773,-4.01744 0.65367,-0.0626 1.33342,0.031 1.51055,0.20816 0.47175,0.47175 -0.88084,6.43212 -1.45964,6.43212 -0.17332,0 -0.5777,-1.18028 -0.89864,-2.62284 z M 47.862516,191.70553 c -0.0096,-6.76227 0.0449,-7.49561 0.507693,-6.83487 0.727778,1.03905 3.224236,2.13296 5.951604,2.60792 1.275284,0.22208 2.462674,0.58712 2.638643,0.81121 0.465584,0.5929 1.581324,5.44148 1.375564,5.97768 -0.0962,0.25068 -1.360024,0.73518 -2.808508,1.07666 -3.115807,0.73455 -6.746375,2.37469 -7.276979,3.28742 -0.276523,0.47567 -0.380155,-1.37414 -0.388017,-6.92602 z m 63.912694,4.83793 c -0.43033,-0.51852 -1.48175,-4.84996 -1.48175,-6.10424 v -0.86005 h 5.29166 c 3.05401,0 5.29167,0.13973 5.29167,0.33043 0,0.60251 -1.37569,6.10174 -1.5767,6.30275 -0.68062,0.68062 -7.0039,0.95885 -7.52488,0.33111 z m -15.913933,-1.87311 c -1.437767,-0.26231 -2.749716,-0.61252 -2.915443,-0.77825 -0.323328,-0.32332 0.655111,-5.28462 1.171892,-5.94221 0.287789,-0.36619 3.312795,-0.0624 3.752018,0.37686 0.08684,0.0868 0.462505,1.46613 0.834823,3.06508 0.64395,2.76552 0.657585,3.87823 0.04649,3.79362 -0.15161,-0.021 -1.452009,-0.25279 -2.889776,-0.5151 z m -25.05302,-4.97141 c -0.88065,-3.51126 -0.904181,-3.46734 2.087715,-3.89738 2.376113,-0.34154 9.075628,-0.32017 9.425863,0.0301 0.235703,0.2357 -0.787662,6.01173 -1.176634,6.6411 -0.09567,0.15481 -2.288205,0.28146 -4.872305,0.28146 h -4.698364 z"
         id="path76"
         inkscape:connector-curvature="0" />
    </g>
  </g>
</svg>
